<?xml version="1.0" encoding="UTF-8"?>
<!DOCTYPE svg PUBLIC "-//W3C//DTD SVG 1.1//EN" "http://www.w3.org/Graphics/SVG/1.1/DTD/svg11.dtd">
<svg xmlns="http://www.w3.org/2000/svg" version="1.1" width="500px" height="500px" style="shape-rendering:geometricPrecision; text-rendering:geometricPrecision; image-rendering:optimizeQuality; fill-rule:evenodd; clip-rule:evenodd" xmlns:xlink="http://www.w3.org/1999/xlink">
<g><path style="opacity:1" fill="#fefefe" d="M -0.5,-0.5 C 166.167,-0.5 332.833,-0.5 499.5,-0.5C 499.5,166.167 499.5,332.833 499.5,499.5C 332.833,499.5 166.167,499.5 -0.5,499.5C -0.5,332.833 -0.5,166.167 -0.5,-0.5 Z"/></g>
<g><path style="opacity:1" fill="#140d0d" d="M 247.5,211.5 C 246.378,212.156 245.045,212.489 243.5,212.5C 235.941,211.705 228.608,211.039 221.5,210.5C 229.772,206.026 237.772,201.026 245.5,195.5C 233.693,188.251 230.693,178.417 236.5,166C 235.833,165.833 235.167,165.667 234.5,165.5C 224.088,169.208 214.088,173.708 204.5,179C 189.145,189.178 172.812,197.511 155.5,204C 142.683,206.619 133.016,202.286 126.5,191C 130.985,192.314 135.652,193.148 140.5,193.5C 144.22,193.384 147.887,192.884 151.5,192C 175.646,182.852 198.98,172.186 221.5,160C 233.466,154.303 245.8,153.303 258.5,157C 271.209,164.708 274.042,175.208 267,188.5C 257.855,195.609 249.022,203.109 240.5,211C 242.81,211.497 245.143,211.663 247.5,211.5 Z"/></g>
<g><path style="opacity:1" fill="#f7f5f5" d="M 302.5,245.5 C 290.218,248.955 277.884,251.621 265.5,253.5C 257.848,254.657 250.848,257.49 244.5,262C 237.65,268.35 231.316,275.184 225.5,282.5C 200.856,310.814 176.189,339.147 151.5,367.5C 150.675,368.386 149.675,368.719 148.5,368.5C 146.887,367.162 146.387,365.495 147,363.5C 165.391,342.449 183.725,321.449 202,300.5C 216.668,282.335 231.501,264.335 246.5,246.5C 250.819,243.347 255.486,240.847 260.5,239C 272.411,237.047 284.411,236.047 296.5,236C 302.123,232.045 307.457,227.712 312.5,223C 316.155,220.665 319.321,221.165 322,224.5C 322.79,227.634 322.457,230.634 321,233.5C 315.138,237.956 308.971,241.956 302.5,245.5 Z"/></g>
<g><path style="opacity:1" fill="#130707" d="M 269.5,268.5 C 269.918,267.778 270.584,267.278 271.5,267C 269.899,266.727 268.399,266.227 267,265.5C 266.667,265.833 266.333,266.167 266,266.5C 264.731,265.095 264.231,263.429 264.5,261.5C 270.81,260.541 277.143,260.541 283.5,261.5C 283.351,260.448 283.517,259.448 284,258.5C 285.518,257.837 286.685,256.837 287.5,255.5C 288.694,254.728 289.694,253.728 290.5,252.5C 294.542,250.099 298.542,247.766 302.5,245.5C 308.971,241.956 315.138,237.956 321,233.5C 322.457,230.634 322.79,227.634 322,224.5C 319.321,221.165 316.155,220.665 312.5,223C 307.457,227.712 302.123,232.045 296.5,236C 284.411,236.047 272.411,237.047 260.5,239C 255.486,240.847 250.819,243.347 246.5,246.5C 245.417,246.461 244.417,246.127 243.5,245.5C 241.14,248.527 238.473,251.194 235.5,253.5C 234.289,252.726 234.289,251.893 235.5,251C 233.892,250.342 232.725,250.842 232,252.5C 231.586,252.043 231.086,251.709 230.5,251.5C 228.088,252.203 225.588,253.203 223,254.5C 221.605,252.888 220.105,251.388 218.5,250C 221.169,243.067 219.169,241.734 212.5,246C 211.789,247.255 210.956,248.421 210,249.5C 209.309,247.109 208.309,247.109 207,249.5C 206.137,251.749 206.637,253.582 208.5,255C 205.917,257.795 203.583,260.795 201.5,264C 202.056,264.383 202.389,264.883 202.5,265.5C 194.915,275.258 186.748,284.591 178,293.5C 157.355,270.767 147.189,243.767 147.5,212.5C 155.752,214.241 163.752,213.408 171.5,210C 188.294,201.436 204.96,192.603 221.5,183.5C 223.398,187.628 225.565,191.628 228,195.5C 229.745,196.956 231.578,198.289 233.5,199.5C 225.39,200.006 217.39,201.172 209.5,203C 197.961,209.602 186.295,215.935 174.5,222C 180.053,223.57 185.719,223.903 191.5,223C 202.223,220.268 212.223,216.101 221.5,210.5C 228.608,211.039 235.941,211.705 243.5,212.5C 245.045,212.489 246.378,212.156 247.5,211.5C 252.844,210.552 257.844,208.719 262.5,206C 269.42,198.92 275.753,191.42 281.5,183.5C 282.164,181.19 282.497,178.69 282.5,176C 282.696,172.195 282.03,168.695 280.5,165.5C 271.407,148.287 257.074,141.12 237.5,144C 232.457,145.178 227.457,146.511 222.5,148C 203.239,157.296 183.905,166.629 164.5,176C 156.699,179.232 148.699,181.899 140.5,184C 125.827,186.164 115.161,180.664 108.5,167.5C 108.833,167.167 109.167,166.833 109.5,166.5C 117.615,170.888 126.281,172.388 135.5,171C 145.62,169.976 155.287,167.309 164.5,163C 193.309,123.782 231.642,109.449 279.5,120C 293.355,124.61 306.189,131.11 318,139.5C 322.965,134.865 327.631,129.865 332,124.5C 334.117,117.036 337.95,110.536 343.5,105C 357.496,98.9955 367.663,102.829 374,116.5C 375.87,129.748 370.37,138.081 357.5,141.5C 352.815,146.351 348.315,151.351 344,156.5C 342.596,158.394 341.43,160.394 340.5,162.5C 358.477,200.283 357.643,237.616 338,274.5C 311.407,312.931 274.907,328.431 228.5,321C 238.424,308.405 249.091,296.405 260.5,285C 263.948,283.073 267.615,281.739 271.5,281C 279.464,279.943 287.464,279.277 295.5,279C 297.878,278.489 300.212,277.822 302.5,277C 314.333,266.5 326.167,256 338,245.5C 341.31,234.37 343.81,223.036 345.5,211.5C 343.794,205.98 340.127,204.147 334.5,206C 330.116,209.491 328.282,213.991 329,219.5C 333.943,226.366 333.443,232.866 327.5,239C 317.921,246.469 307.921,253.469 297.5,260C 295.954,262.257 294.288,264.424 292.5,266.5C 284.834,267.307 277.167,267.973 269.5,268.5 Z"/></g>
<g><path style="opacity:1" fill="#82353b" d="M 290.5,252.5 C 289.694,253.728 288.694,254.728 287.5,255.5C 276.961,258.232 266.294,260.399 255.5,262C 251.437,266.045 246.771,269.378 241.5,272C 235.996,278.337 230.329,284.504 224.5,290.5C 223.325,290.719 222.325,290.386 221.5,289.5C 223.788,287.733 225.121,285.4 225.5,282.5C 231.316,275.184 237.65,268.35 244.5,262C 250.848,257.49 257.848,254.657 265.5,253.5C 273.467,253.55 281.3,252.55 289,250.5C 290.03,250.836 290.53,251.503 290.5,252.5 Z"/></g>
<g><path style="opacity:1" fill="#89585d" d="M 302.5,245.5 C 298.542,247.766 294.542,250.099 290.5,252.5C 290.53,251.503 290.03,250.836 289,250.5C 281.3,252.55 273.467,253.55 265.5,253.5C 277.884,251.621 290.218,248.955 302.5,245.5 Z"/></g>
<g><path style="opacity:1" fill="#7a272a" d="M 218.5,239.5 C 216.712,239.215 215.045,239.548 213.5,240.5C 208.45,245.88 203.45,251.213 198.5,256.5C 196.952,256.179 196.285,255.179 196.5,253.5C 197.558,248.582 196.558,248.248 193.5,252.5C 192.178,252.67 191.011,252.337 190,251.5C 184.419,255.278 179.085,259.278 174,263.5C 171.619,261.617 169.786,259.284 168.5,256.5C 168.709,255.914 169.043,255.414 169.5,255C 165.894,248.286 164.227,241.12 164.5,233.5C 176.362,235.555 188.362,236.055 200.5,235C 201.167,234.333 201.833,233.667 202.5,233C 211.191,231.745 219.525,229.412 227.5,226C 230.146,225.503 232.813,225.336 235.5,225.5C 233.276,230.252 230.276,234.585 226.5,238.5C 223.914,239.48 221.247,239.813 218.5,239.5 Z"/></g>
<g><path style="opacity:1" fill="#66292a" d="M 218.5,239.5 C 221.247,239.813 223.914,239.48 226.5,238.5C 230.276,234.585 233.276,230.252 235.5,225.5C 232.813,225.336 230.146,225.503 227.5,226C 219.525,229.412 211.191,231.745 202.5,233C 201.833,233.667 201.167,234.333 200.5,235C 188.362,236.055 176.362,235.555 164.5,233.5C 164.227,241.12 165.894,248.286 169.5,255C 169.043,255.414 168.709,255.914 168.5,256.5C 169.786,259.284 171.619,261.617 174,263.5C 179.085,259.278 184.419,255.278 190,251.5C 191.011,252.337 192.178,252.67 193.5,252.5C 187.673,256.585 182.007,260.918 176.5,265.5C 172.352,267.22 169.519,265.887 168,261.5C 164.869,252.643 162.202,243.643 160,234.5C 159.192,232.421 159.359,230.421 160.5,228.5C 171.309,233.332 182.643,234.832 194.5,233C 210.729,228.556 227.062,224.889 243.5,222C 237.372,228.634 231.372,235.468 225.5,242.5C 222.143,243.99 219.809,242.99 218.5,239.5 Z"/></g>
<g><path style="opacity:1" fill="#683235" d="M 265.5,216.5 C 261.529,220.437 258.029,224.77 255,229.5C 254.308,230.437 254.475,231.103 255.5,231.5C 251.595,233.793 247.595,236.126 243.5,238.5C 242.479,237.998 242.312,237.332 243,236.5C 248.452,230.013 254.285,223.846 260.5,218C 262.025,216.991 263.692,216.491 265.5,216.5 Z"/></g>
<g><path style="opacity:1" fill="#220707" d="M 296.5,196.5 C 294.925,199.582 292.758,202.249 290,204.5C 289.64,206.421 288.806,208.088 287.5,209.5C 287.709,210.086 288.043,210.586 288.5,211C 285.892,213.784 282.892,215.951 279.5,217.5C 279.714,219.144 279.38,220.644 278.5,222C 280.932,223.087 280.598,223.587 277.5,223.5C 277.338,225.824 276.172,227.491 274,228.5C 273.667,227.833 273.333,227.167 273,226.5C 272.316,227.784 272.483,228.951 273.5,230C 272.5,230.5 271.5,231 270.5,231.5C 268.149,229.771 265.482,229.104 262.5,229.5C 262.5,229.167 262.5,228.833 262.5,228.5C 267.352,229.723 270.519,228.056 272,223.5C 278.488,218.022 283.822,211.689 288,204.5C 290.749,201.579 293.583,198.912 296.5,196.5 Z"/></g>
<g><path style="opacity:1" fill="#f4eded" d="M 293.5,192.5 C 283.248,204.43 272.914,216.43 262.5,228.5C 262.5,228.833 262.5,229.167 262.5,229.5C 260.254,230.455 257.921,231.122 255.5,231.5C 254.475,231.103 254.308,230.437 255,229.5C 258.029,224.77 261.529,220.437 265.5,216.5C 272.375,208.604 279.375,200.771 286.5,193C 288.81,192.503 291.143,192.337 293.5,192.5 Z"/></g>
<g><path style="opacity:1" fill="#f4f3f3" d="M 309.5,203.5 C 312.518,203.335 315.518,203.502 318.5,204C 321.52,206.264 322.187,209.097 320.5,212.5C 310.621,213.382 302.621,217.716 296.5,225.5C 291.869,226.662 287.202,226.828 282.5,226C 287.354,220.647 292.021,215.147 296.5,209.5C 301.269,208.253 305.603,206.253 309.5,203.5 Z"/></g>
<g><path style="opacity:1" fill="#7d3f43" d="M 293.5,192.5 C 295.912,192.694 296.912,194.027 296.5,196.5C 293.583,198.912 290.749,201.579 288,204.5C 283.822,211.689 278.488,218.022 272,223.5C 270.519,228.056 267.352,229.723 262.5,228.5C 272.914,216.43 283.248,204.43 293.5,192.5 Z"/></g>
<g><path style="opacity:1" fill="#803a3d" d="M 335.5,180.5 C 337.905,185.112 339.238,190.112 339.5,195.5C 337.473,195.338 335.473,195.505 333.5,196C 331.949,198.045 329.949,199.545 327.5,200.5C 323.59,197.228 319.256,194.562 314.5,192.5C 319.591,186.234 324.924,180.067 330.5,174C 331.549,173.508 332.549,173.674 333.5,174.5C 334.477,176.411 335.143,178.411 335.5,180.5 Z"/></g>
<g><path style="opacity:1" fill="#93363b" d="M 335.5,180.5 C 335.685,184.244 336.352,187.911 337.5,191.5C 337.392,192.442 337.059,193.275 336.5,194C 333.18,194.743 330.013,195.91 327,197.5C 324.313,195.229 321.479,193.062 318.5,191C 320.462,187.171 323.129,183.837 326.5,181C 328.92,180.313 331.087,180.813 333,182.5C 333.417,181.244 334.25,180.577 335.5,180.5 Z"/></g>
<g><path style="opacity:1" fill="#6c4247" d="M 304.5,177.5 C 307.37,178.078 309.037,179.745 309.5,182.5C 301.164,183.37 292.831,183.87 284.5,184C 285.636,182.855 286.636,181.688 287.5,180.5C 288.097,181.139 288.93,181.472 290,181.5C 294.477,180.82 298.977,180.32 303.5,180C 304.252,179.329 304.586,178.496 304.5,177.5 Z"/></g>
<g><path style="opacity:1" fill="#93908e" d="M 280.5,165.5 C 282.03,168.695 282.696,172.195 282.5,176C 282.497,178.69 282.164,181.19 281.5,183.5C 281.64,177.464 281.307,171.464 280.5,165.5 Z"/></g>
<g><path style="opacity:1" fill="#f0eaea" d="M 304.5,177.5 C 304.586,178.496 304.252,179.329 303.5,180C 298.977,180.32 294.477,180.82 290,181.5C 288.93,181.472 288.097,181.139 287.5,180.5C 288.625,178.871 289.959,177.371 291.5,176C 296.001,175.271 300.335,175.771 304.5,177.5 Z"/></g>
<g><path style="opacity:1" fill="#783435" d="M 316.5,162.5 C 319.998,164.458 321.165,167.458 320,171.5C 316.124,176.734 312.291,176.734 308.5,171.5C 309.496,171.586 310.329,171.252 311,170.5C 313.08,167.935 314.913,165.268 316.5,162.5 Z"/></g>
<g><path style="opacity:1" fill="#f8f7f7" d="M 247.5,165.5 C 261.097,165.581 265.097,171.748 259.5,184C 246.736,189.535 240.902,185.368 242,171.5C 244.04,169.63 245.873,167.63 247.5,165.5 Z"/></g>
<g><path style="opacity:1" fill="#efe9e9" d="M 316.5,162.5 C 314.913,165.268 313.08,167.935 311,170.5C 310.329,171.252 309.496,171.586 308.5,171.5C 307.167,171.5 305.833,171.5 304.5,171.5C 305.643,164.69 309.643,161.69 316.5,162.5 Z"/></g>
<g><path style="opacity:1" fill="#241111" d="M 307.5,145.5 C 309.564,145.687 311.564,146.187 313.5,147C 311.19,148.459 310.857,150.292 312.5,152.5C 315.39,154.23 318.724,155.23 322.5,155.5C 324.188,154.479 325.521,153.145 326.5,151.5C 328.636,152.403 330.636,153.569 332.5,155C 329.966,155.516 327.8,156.683 326,158.5C 322.395,155.217 319.062,155.217 316,158.5C 313.993,157.331 311.827,156.665 309.5,156.5C 309.649,155.448 309.483,154.448 309,153.5C 305.392,156.917 302.558,160.917 300.5,165.5C 298.619,167.734 296.285,169.067 293.5,169.5C 298.076,162.75 303.242,156.417 309,150.5C 309.613,148.505 309.113,146.838 307.5,145.5 Z"/></g>
<g><path style="opacity:1" fill="#ece7e7" d="M 326.5,151.5 C 325.521,153.145 324.188,154.479 322.5,155.5C 318.724,155.23 315.39,154.23 312.5,152.5C 313.837,151.685 314.837,150.518 315.5,149C 319.639,148.13 323.306,148.963 326.5,151.5 Z"/></g>
<g><path style="opacity:1" fill="#953f41" d="M 263.5,128.5 C 279.6,130.841 294.267,136.508 307.5,145.5C 309.113,146.838 309.613,148.505 309,150.5C 303.242,156.417 298.076,162.75 293.5,169.5C 292.624,169.631 291.957,169.298 291.5,168.5C 286.248,149.912 274.248,138.578 255.5,134.5C 246.991,133.833 238.324,133.167 229.5,132.5C 231.5,131.5 233.5,130.5 235.5,129.5C 244.81,128.502 254.143,128.168 263.5,128.5 Z"/></g>
<g><path style="opacity:1" fill="#824347" d="M 336.5,138.5 C 339.136,141.261 339.969,144.594 339,148.5C 338.586,148.957 338.086,149.291 337.5,149.5C 335.235,147.873 332.901,146.539 330.5,145.5C 333.858,144.466 335.858,142.133 336.5,138.5 Z"/></g>
<g><path style="opacity:1" fill="#1d0504" d="M 255.5,134.5 C 274.248,138.578 286.248,149.912 291.5,168.5C 291.957,169.298 292.624,169.631 293.5,169.5C 292.614,170.776 291.614,170.776 290.5,169.5C 288.011,162.536 284.511,156.202 280,150.5C 278.556,148.845 276.722,148.178 274.5,148.5C 274.5,147.167 274.5,145.833 274.5,144.5C 268.837,144.495 264.17,141.995 260.5,137C 247.84,135.457 235.506,136.624 223.5,140.5C 224.729,141.281 226.062,141.781 227.5,142C 226.333,142.5 225.5,143.333 225,144.5C 222.667,141.833 220.333,141.833 218,144.5C 216.334,143.66 216.167,144.16 217.5,146C 214.5,147.667 211.5,149.333 208.5,151C 207.207,151.49 205.873,151.657 204.5,151.5C 204.616,148.09 202.95,146.756 199.5,147.5C 204.002,144.613 209.002,142.78 214.5,142C 219.955,138.461 225.955,136.127 232.5,135C 240.159,134.5 247.826,134.334 255.5,134.5 Z"/></g>
<g><path style="opacity:1" fill="#ede8e9" d="M 336.5,138.5 C 335.858,142.133 333.858,144.466 330.5,145.5C 329.5,145.5 328.5,145.5 327.5,145.5C 328.091,140.995 330.258,137.329 334,134.5C 335.095,135.693 335.928,137.027 336.5,138.5 Z"/></g>
<g><path style="opacity:1" fill="#713132" d="M 263.5,128.5 C 254.143,128.168 244.81,128.502 235.5,129.5C 233.5,130.5 231.5,131.5 229.5,132.5C 238.324,133.167 246.991,133.833 255.5,134.5C 247.826,134.334 240.159,134.5 232.5,135C 225.955,136.127 219.955,138.461 214.5,142C 209.002,142.78 204.002,144.613 199.5,147.5C 197.145,148.094 194.978,149.094 193,150.5C 192.5,150.167 192,149.833 191.5,149.5C 195.728,146.226 199.728,142.726 203.5,139C 222.376,128.358 242.376,124.858 263.5,128.5 Z"/></g>
<g><path style="opacity:1" fill="#72272c" d="M 359.5,112.5 C 361.148,113.777 362.982,114.777 365,115.5C 366.521,121.877 365.021,127.377 360.5,132C 352.718,135.145 347.052,132.978 343.5,125.5C 347.033,120.379 352.033,117.213 358.5,116C 359.337,114.989 359.67,113.822 359.5,112.5 Z"/></g>
<g><path style="opacity:1" fill="#f5efef" d="M 359.5,112.5 C 359.67,113.822 359.337,114.989 358.5,116C 352.033,117.213 347.033,120.379 343.5,125.5C 342.817,114.682 347.817,109.849 358.5,111C 359.056,111.383 359.389,111.883 359.5,112.5 Z"/></g>
<g><path style="opacity:1" fill="#5c272d" d="M 196.5,253.5 C 196.285,255.179 196.952,256.179 198.5,256.5C 192.53,263.805 186.197,270.805 179.5,277.5C 179.167,277.167 178.833,276.833 178.5,276.5C 183.086,267.598 189.086,259.931 196.5,253.5 Z"/></g>
<g><path style="opacity:1" fill="#622326" d="M 279.5,297.5 C 278.414,297.38 277.747,296.713 277.5,295.5C 277.752,293.927 278.418,292.594 279.5,291.5C 280.842,290.207 282.509,289.374 284.5,289C 290.94,288.852 297.274,288.018 303.5,286.5C 306.676,284.17 310.009,282.004 313.5,280C 322.264,270.781 331.264,261.781 340.5,253C 341.332,252.312 341.998,252.479 342.5,253.5C 340.125,258.481 337.291,263.148 334,267.5C 324.743,275.761 315.91,284.261 307.5,293C 298.904,294.526 290.237,295.526 281.5,296C 280.584,296.278 279.918,296.778 279.5,297.5 Z"/></g>
<g><path style="opacity:1" fill="#4d2627" d="M 279.5,291.5 C 278.418,292.594 277.752,293.927 277.5,295.5C 277.747,296.713 278.414,297.38 279.5,297.5C 275.115,299.781 270.781,301.947 266.5,304C 269.934,299.81 273.6,295.81 277.5,292C 278.094,291.536 278.761,291.369 279.5,291.5 Z"/></g>
<g><path style="opacity:1" fill="#74373c" d="M 225.5,282.5 C 225.121,285.4 223.788,287.733 221.5,289.5C 222.325,290.386 223.325,290.719 224.5,290.5C 220.52,295.979 216.02,300.979 211,305.5C 208.906,307.921 207.24,310.588 206,313.5C 203.31,315.027 201.143,317.027 199.5,319.5C 196.743,322.156 194.243,325.156 192,328.5C 190.693,329.772 189.193,330.772 187.5,331.5C 182.403,337.251 177.737,343.251 173.5,349.5C 166.51,356.657 159.677,363.991 153,371.5C 151.019,371.101 149.519,370.101 148.5,368.5C 149.675,368.719 150.675,368.386 151.5,367.5C 176.189,339.147 200.856,310.814 225.5,282.5 Z"/></g>
<g><path style="opacity:1" fill="#130c0b" d="M 246.5,246.5 C 231.501,264.335 216.668,282.335 202,300.5C 183.725,321.449 165.391,342.449 147,363.5C 146.387,365.495 146.887,367.162 148.5,368.5C 147.624,368.369 146.957,368.702 146.5,369.5C 145.835,371.101 145.501,372.601 145.5,374C 144.216,374.684 143.049,374.517 142,373.5C 141.722,374.416 141.222,375.082 140.5,375.5C 139.998,373.915 138.998,373.415 137.5,374C 134.703,377.799 131.536,381.299 128,384.5C 126.441,386.217 125.608,388.217 125.5,390.5C 126.551,391.222 127.218,392.222 127.5,393.5C 126.153,392.829 124.986,392.829 124,393.5C 124.135,391.575 124.302,389.575 124.5,387.5C 122.549,387.227 121.049,387.893 120,389.5C 118.641,388.635 117.474,387.635 116.5,386.5C 117.343,383.484 118.843,380.817 121,378.5C 156.561,338.98 191.394,298.98 225.5,258.5C 222.804,257.149 220.47,255.316 218.5,253C 217.167,252.333 215.833,252.333 214.5,253C 210.997,257.669 206.997,261.836 202.5,265.5C 202.389,264.883 202.056,264.383 201.5,264C 203.583,260.795 205.917,257.795 208.5,255C 206.637,253.582 206.137,251.749 207,249.5C 208.309,247.109 209.309,247.109 210,249.5C 210.956,248.421 211.789,247.255 212.5,246C 219.169,241.734 221.169,243.067 218.5,250C 220.105,251.388 221.605,252.888 223,254.5C 225.588,253.203 228.088,252.203 230.5,251.5C 231.086,251.709 231.586,252.043 232,252.5C 232.725,250.842 233.892,250.342 235.5,251C 234.289,251.893 234.289,252.726 235.5,253.5C 238.473,251.194 241.14,248.527 243.5,245.5C 244.417,246.127 245.417,246.461 246.5,246.5 Z"/></g>
<g><path style="opacity:1" fill="#2f0b0c" d="M 199.5,319.5 C 197.674,324.449 194.841,328.783 191,332.5C 190.667,332.167 190.333,331.833 190,331.5C 185.314,338.348 179.814,344.348 173.5,349.5C 177.737,343.251 182.403,337.251 187.5,331.5C 189.193,330.772 190.693,329.772 192,328.5C 194.243,325.156 196.743,322.156 199.5,319.5 Z"/></g>
<g><path style="opacity:1" fill="#181312" d="M 258.5,337.5 C 261.699,337.696 263.699,339.363 264.5,342.5C 261.634,348.975 258.634,349.142 255.5,343C 255.863,340.808 256.863,338.974 258.5,337.5 Z"/></g>
<g><path style="opacity:1" fill="#1c1817" d="M 240.5,337.5 C 244.43,336.998 246.763,338.665 247.5,342.5C 246.587,346.251 244.254,347.751 240.5,347C 237.875,343.763 237.875,340.596 240.5,337.5 Z"/></g>
<g><path style="opacity:1" fill="#160707" d="M 287.5,255.5 C 286.685,256.837 285.518,257.837 284,258.5C 283.517,259.448 283.351,260.448 283.5,261.5C 277.143,260.541 270.81,260.541 264.5,261.5C 264.231,263.429 264.731,265.095 266,266.5C 266.333,266.167 266.667,265.833 267,265.5C 268.399,266.227 269.899,266.727 271.5,267C 270.584,267.278 269.918,267.778 269.5,268.5C 258.131,271.036 248.631,276.703 241,285.5C 214.401,316.438 187.401,347.105 160,377.5C 159.667,378.833 159.333,380.167 159,381.5C 152.5,388.667 146,395.833 139.5,403C 126.14,408.151 118.14,403.651 115.5,389.5C 115.52,388.274 115.853,387.274 116.5,386.5C 117.474,387.635 118.641,388.635 120,389.5C 121.049,387.893 122.549,387.227 124.5,387.5C 124.302,389.575 124.135,391.575 124,393.5C 124.986,392.829 126.153,392.829 127.5,393.5C 130.978,393.816 134.312,393.316 137.5,392C 139.628,388.87 142.128,386.037 145,383.5C 145.032,380.332 143.532,377.999 140.5,376.5C 140.5,376.167 140.5,375.833 140.5,375.5C 141.222,375.082 141.722,374.416 142,373.5C 143.049,374.517 144.216,374.684 145.5,374C 145.501,372.601 145.835,371.101 146.5,369.5C 146.957,368.702 147.624,368.369 148.5,368.5C 149.519,370.101 151.019,371.101 153,371.5C 159.677,363.991 166.51,356.657 173.5,349.5C 179.814,344.348 185.314,338.348 190,331.5C 190.333,331.833 190.667,332.167 191,332.5C 194.841,328.783 197.674,324.449 199.5,319.5C 201.143,317.027 203.31,315.027 206,313.5C 207.24,310.588 208.906,307.921 211,305.5C 216.02,300.979 220.52,295.979 224.5,290.5C 230.329,284.504 235.996,278.337 241.5,272C 246.771,269.378 251.437,266.045 255.5,262C 266.294,260.399 276.961,258.232 287.5,255.5 Z"/></g>
<g><path style="opacity:1" fill="#110b0b" d="M 276.5,365.5 C 281.65,364.349 286.984,364.183 292.5,365C 293.931,365.465 295.097,366.299 296,367.5C 297.407,372.367 296.24,376.367 292.5,379.5C 294.719,382.882 297.719,385.382 301.5,387C 300.481,390.048 298.481,391.381 295.5,391C 292.794,388.629 290.461,385.963 288.5,383C 286.975,381.991 285.308,381.491 283.5,381.5C 283.508,384.545 283.841,387.545 284.5,390.5C 282.167,390.5 279.833,390.5 277.5,390.5C 277.826,381.983 277.493,373.65 276.5,365.5 Z"/></g>
<g><path style="opacity:1" fill="#eeebea" d="M 283.5,369.5 C 290.536,368.603 292.203,371.103 288.5,377C 286.975,378.009 285.308,378.509 283.5,378.5C 283.5,375.5 283.5,372.5 283.5,369.5 Z"/></g>
<g><path style="opacity:1" fill="#0f0707" d="M 333.5,364.5 C 335.5,364.5 337.5,364.5 339.5,364.5C 339.5,367.833 339.5,371.167 339.5,374.5C 343.833,374.5 348.167,374.5 352.5,374.5C 352.777,371.552 352.444,368.719 351.5,366C 353.594,364.648 355.927,364.148 358.5,364.5C 358.197,372.889 358.53,381.222 359.5,389.5C 357.257,390.474 354.924,390.808 352.5,390.5C 352.5,386.833 352.5,383.167 352.5,379.5C 348.167,379.5 343.833,379.5 339.5,379.5C 339.423,383.215 339.756,386.881 340.5,390.5C 338.167,390.5 335.833,390.5 333.5,390.5C 333.427,381.624 333.427,372.957 333.5,364.5 Z"/></g>
<g><path style="opacity:1" fill="#e9dfe0" d="M 140.5,375.5 C 140.5,375.833 140.5,376.167 140.5,376.5C 136.108,381.894 131.108,386.561 125.5,390.5C 125.608,388.217 126.441,386.217 128,384.5C 131.536,381.299 134.703,377.799 137.5,374C 138.998,373.415 139.998,373.915 140.5,375.5 Z"/></g>
<g><path style="opacity:1" fill="#130d0d" d="M 184.5,364.5 C 188.846,364.334 193.179,364.501 197.5,365C 205.848,368.07 206.515,372.403 199.5,378C 205.232,380.389 205.898,383.889 201.5,388.5C 196.074,390.634 190.574,390.967 185,389.5C 185.678,381.144 185.512,372.811 184.5,364.5 Z"/></g>
<g><path style="opacity:1" fill="#f7f5f5" d="M 191.5,368.5 C 197.158,367.679 198.825,369.846 196.5,375C 194.866,375.494 193.199,375.66 191.5,375.5C 191.5,373.167 191.5,370.833 191.5,368.5 Z"/></g>
<g><path style="opacity:1" fill="#171111" d="M 243.5,364.5 C 246.119,364.232 248.619,364.565 251,365.5C 251.684,366.784 251.517,367.951 250.5,369C 248.167,369.333 245.833,369.667 243.5,370C 242.978,370.561 242.645,371.228 242.5,372C 244.951,374.615 247.618,377.115 250.5,379.5C 251.387,386.64 248.054,390.64 240.5,391.5C 237.345,391.183 236.178,389.517 237,386.5C 238.974,386.374 241.141,386.208 243.5,386C 244.428,385.612 245.095,384.945 245.5,384C 243.59,380.951 241.09,378.451 238,376.5C 237.333,374.167 237.333,371.833 238,369.5C 239.73,367.598 241.563,365.931 243.5,364.5 Z"/></g>
<g><path style="opacity:1" fill="#e9e7e6" d="M 190.5,379.5 C 192.527,379.338 194.527,379.505 196.5,380C 199.258,382.402 198.925,384.402 195.5,386C 193.866,386.494 192.199,386.66 190.5,386.5C 190.5,384.167 190.5,381.833 190.5,379.5 Z"/></g>
<g><path style="opacity:1" fill="#120c0c" d="M 217.5,364.5 C 220.157,364.162 222.49,364.829 224.5,366.5C 227.296,374.092 230.63,381.425 234.5,388.5C 229.723,391.851 226.723,390.518 225.5,384.5C 222.216,383.343 218.882,383.176 215.5,384C 214.331,386.007 213.665,388.173 213.5,390.5C 211.023,390.949 209.023,390.283 207.5,388.5C 211.406,380.694 214.74,372.694 217.5,364.5 Z"/></g>
<g><path style="opacity:1" fill="#f2edee" d="M 219.5,372.5 C 221.196,374.268 222.53,376.435 223.5,379C 221.421,379.808 219.421,379.641 217.5,378.5C 218.372,376.55 219.039,374.55 219.5,372.5 Z"/></g>
<g><path style="opacity:1" fill="#100809" d="M 312.5,364.5 C 315.044,364.104 317.211,364.771 319,366.5C 321.825,374.316 325.325,381.816 329.5,389C 323.417,392.216 320.417,390.383 320.5,383.5C 316.774,383.177 313.107,383.511 309.5,384.5C 308.652,386.409 308.318,388.409 308.5,390.5C 306.5,390.5 304.5,390.5 302.5,390.5C 302.523,388.073 303.023,385.74 304,383.5C 307.514,377.453 310.347,371.119 312.5,364.5 Z"/></g>
<g><path style="opacity:1" fill="#eeebea" d="M 314.5,372.5 C 316.448,374.32 317.448,376.654 317.5,379.5C 315.833,379.5 314.167,379.5 312.5,379.5C 312.878,377.079 313.545,374.746 314.5,372.5 Z"/></g>
<g><path style="opacity:1" fill="#140e0e" d="M 255.5,364.5 C 260.844,364.334 266.177,364.501 271.5,365C 272.38,366.356 272.714,367.856 272.5,369.5C 269.167,369.5 265.833,369.5 262.5,369.5C 262.5,371.5 262.5,373.5 262.5,375.5C 265.5,375.5 268.5,375.5 271.5,375.5C 271.67,376.822 271.337,377.989 270.5,379C 267.854,379.497 265.187,379.664 262.5,379.5C 262.5,381.833 262.5,384.167 262.5,386.5C 265.448,386.777 268.281,386.444 271,385.5C 272.368,386.993 272.535,388.493 271.5,390C 266.177,390.499 260.844,390.666 255.5,390.5C 256.769,381.814 256.769,373.147 255.5,364.5 Z"/></g>
<g><path style="opacity:1" fill="#612729" d="M 140.5,376.5 C 143.532,377.999 145.032,380.332 145,383.5C 142.128,386.037 139.628,388.87 137.5,392C 134.312,393.316 130.978,393.816 127.5,393.5C 127.218,392.222 126.551,391.222 125.5,390.5C 131.108,386.561 136.108,381.894 140.5,376.5 Z"/></g>
</svg>
