<?xml version="1.0" encoding="UTF-8"?>
<!DOCTYPE svg PUBLIC "-//W3C//DTD SVG 1.1//EN" "http://www.w3.org/Graphics/SVG/1.1/DTD/svg11.dtd">
<svg xmlns="http://www.w3.org/2000/svg" version="1.1" width="217px" height="299px" style="shape-rendering:geometricPrecision; text-rendering:geometricPrecision; image-rendering:optimizeQuality; fill-rule:evenodd; clip-rule:evenodd" xmlns:xlink="http://www.w3.org/1999/xlink">
<g><path style="opacity:1" fill="#f6f5f5" d="M -0.5,-0.5 C 71.8333,-0.5 144.167,-0.5 216.5,-0.5C 216.5,99.1667 216.5,198.833 216.5,298.5C 212.167,298.5 207.833,298.5 203.5,298.5C 203.667,243.166 203.5,187.832 203,132.5C 194.017,126.934 185.184,121.267 176.5,115.5C 175.791,114.596 174.791,114.263 173.5,114.5C 173.5,175.833 173.5,237.167 173.5,298.5C 169.167,298.5 164.833,298.5 160.5,298.5C 160.667,215.499 160.5,132.499 160,49.5C 136.937,36.4369 114.104,23.1035 91.5,9.5C 90.791,8.59603 89.791,8.26269 88.5,8.5C 88.1669,36.1747 88.5002,63.8414 89.5,91.5C 90.1067,91.3764 90.44,91.0431 90.5,90.5C 105.711,81.06 121.378,72.3933 137.5,64.5C 138.499,142.332 138.833,220.332 138.5,298.5C 134.5,298.5 130.5,298.5 126.5,298.5C 126.833,227.497 126.5,156.497 125.5,85.5C 101.872,98.6332 78.3716,111.967 55,125.5C 54.5,183.166 54.3333,240.832 54.5,298.5C 50.8333,298.5 47.1667,298.5 43.5,298.5C 43.8332,257.161 43.4999,215.828 42.5,174.5C 41.8933,174.624 41.56,174.957 41.5,175.5C 32.5308,179.984 23.8641,184.984 15.5,190.5C 13.5064,226.151 12.8398,262.151 13.5,298.5C 8.83333,298.5 4.16667,298.5 -0.5,298.5C -0.5,198.833 -0.5,99.1667 -0.5,-0.5 Z"/></g>
<g><path style="opacity:1" fill="#c67c2c" d="M 91.5,9.5 C 114.104,23.1035 136.937,36.4369 160,49.5C 160.5,132.499 160.667,215.499 160.5,298.5C 153.5,298.5 146.5,298.5 139.5,298.5C 139.833,220.164 139.5,141.83 138.5,63.5C 137.893,63.6236 137.56,63.9569 137.5,64.5C 121.378,72.3933 105.711,81.06 90.5,90.5C 89.8334,77.1708 89.5001,63.6708 89.5,50C 89.5007,36.1497 90.1674,22.6497 91.5,9.5 Z"/></g>
<g><path style="opacity:1" fill="#ead7c3" d="M 91.5,9.5 C 90.1674,22.6497 89.5007,36.1497 89.5,50C 89.5001,63.6708 89.8334,77.1708 90.5,90.5C 90.44,91.0431 90.1067,91.3764 89.5,91.5C 88.5002,63.8414 88.1669,36.1747 88.5,8.5C 89.791,8.26269 90.791,8.59603 91.5,9.5 Z"/></g>
<g><path style="opacity:1" fill="#ead7c3" d="M 137.5,64.5 C 137.56,63.9569 137.893,63.6236 138.5,63.5C 139.5,141.83 139.833,220.164 139.5,298.5C 139.167,298.5 138.833,298.5 138.5,298.5C 138.833,220.332 138.499,142.332 137.5,64.5 Z"/></g>
<g><path style="opacity:1" fill="#292f44" d="M 126.5,298.5 C 102.5,298.5 78.5,298.5 54.5,298.5C 54.3333,240.832 54.5,183.166 55,125.5C 78.3716,111.967 101.872,98.6332 125.5,85.5C 126.5,156.497 126.833,227.497 126.5,298.5 Z"/></g>
<g><path style="opacity:1" fill="#282e44" d="M 176.5,115.5 C 185.184,121.267 194.017,126.934 203,132.5C 203.5,187.832 203.667,243.166 203.5,298.5C 193.833,298.5 184.167,298.5 174.5,298.5C 173.837,237.158 174.504,176.158 176.5,115.5 Z"/></g>
<g><path style="opacity:1" fill="#515363" d="M 176.5,115.5 C 174.504,176.158 173.837,237.158 174.5,298.5C 174.167,298.5 173.833,298.5 173.5,298.5C 173.5,237.167 173.5,175.833 173.5,114.5C 174.791,114.263 175.791,114.596 176.5,115.5 Z"/></g>
<g><path style="opacity:1" fill="#cf995a" d="M 41.5,175.5 C 41.56,174.957 41.8933,174.624 42.5,174.5C 43.4999,215.828 43.8332,257.161 43.5,298.5C 43.1667,298.5 42.8333,298.5 42.5,298.5C 42.832,257.33 42.4986,216.33 41.5,175.5 Z"/></g>
<g><path style="opacity:1" fill="#c67c2b" d="M 41.5,175.5 C 42.4986,216.33 42.832,257.33 42.5,298.5C 33.1667,298.5 23.8333,298.5 14.5,298.5C 14.1736,262.427 14.5069,226.427 15.5,190.5C 23.8641,184.984 32.5308,179.984 41.5,175.5 Z"/></g>
<g><path style="opacity:1" fill="#d09355" d="M 15.5,190.5 C 14.5069,226.427 14.1736,262.427 14.5,298.5C 14.1667,298.5 13.8333,298.5 13.5,298.5C 12.8398,262.151 13.5064,226.151 15.5,190.5 Z"/></g>
</svg>
