<?xml version="1.0" encoding="UTF-8"?>
<!DOCTYPE svg PUBLIC "-//W3C//DTD SVG 1.1//EN" "http://www.w3.org/Graphics/SVG/1.1/DTD/svg11.dtd">
<svg xmlns="http://www.w3.org/2000/svg" version="1.1" width="200px" height="200px" style="shape-rendering:geometricPrecision; text-rendering:geometricPrecision; image-rendering:optimizeQuality; fill-rule:evenodd; clip-rule:evenodd" xmlns:xlink="http://www.w3.org/1999/xlink">
<g><path style="opacity:1" fill="#2aa148" d="M -0.5,-0.5 C 66.1667,-0.5 132.833,-0.5 199.5,-0.5C 199.5,66.1667 199.5,132.833 199.5,199.5C 132.833,199.5 66.1667,199.5 -0.5,199.5C -0.5,132.833 -0.5,66.1667 -0.5,-0.5 Z"/></g>
<g><path style="opacity:1" fill="#6e9d2d" d="M 91.5,36.5 C 94.6399,35.3592 97.9733,35.1925 101.5,36C 103.881,36.2233 105.547,37.39 106.5,39.5C 104.685,38.3702 102.685,37.7036 100.5,37.5C 97.7131,36.5233 94.7131,36.19 91.5,36.5 Z"/></g>
<g><path style="opacity:1" fill="#cabc39" d="M 91.5,36.5 C 94.7131,36.19 97.7131,36.5233 100.5,37.5C 92.6537,36.8752 85.6537,38.8752 79.5,43.5C 79.5,43.1667 79.5,42.8333 79.5,42.5C 82.6325,38.9336 86.6325,36.9336 91.5,36.5 Z"/></g>
<g><path style="opacity:1" fill="#aeb634" d="M 79.5,43.5 C 79.2624,45.4044 78.2624,46.7377 76.5,47.5C 76.7376,45.5956 77.7376,44.2623 79.5,43.5 Z"/></g>
<g><path style="opacity:1" fill="#bab641" d="M 111.5,44.5 C 112.906,44.9731 113.573,45.9731 113.5,47.5C 112.094,47.0269 111.427,46.0269 111.5,44.5 Z"/></g>
<g><path style="opacity:1" fill="#a2af35" d="M 113.5,47.5 C 114.906,47.9731 115.573,48.9731 115.5,50.5C 114.094,50.0269 113.427,49.0269 113.5,47.5 Z"/></g>
<g><path style="opacity:1" fill="#459d36" d="M 109.5,41.5 C 112.922,42.6239 115.256,44.9572 116.5,48.5C 117.376,49.2508 118.376,49.7508 119.5,50C 118.62,51.3561 118.286,52.8561 118.5,54.5C 118.768,56.099 118.434,57.4324 117.5,58.5C 117.784,56.5853 117.451,54.9187 116.5,53.5C 116.443,52.391 116.11,51.391 115.5,50.5C 115.573,48.9731 114.906,47.9731 113.5,47.5C 113.573,45.9731 112.906,44.9731 111.5,44.5C 110.833,43.5 110.167,42.5 109.5,41.5 Z"/></g>
<g><path style="opacity:1" fill="#429c39" d="M 79.5,42.5 C 79.5,42.8333 79.5,43.1667 79.5,43.5C 77.7376,44.2623 76.7376,45.5956 76.5,47.5C 75.3882,49.5994 74.7215,51.9327 74.5,54.5C 73.3659,56.9664 73.1993,59.633 74,62.5C 74.3826,63.056 74.8826,63.3893 75.5,63.5C 76.1667,65.5 76.8333,67.5 77.5,69.5C 75.6782,68.6751 74.0115,68.3418 72.5,68.5C 74.1616,66.6892 74.3282,65.0225 73,63.5C 72.8333,61.5 72.6667,59.5 72.5,57.5C 73.7952,52.3005 74.7952,46.9672 75.5,41.5C 76.9587,41.4326 78.2921,41.7659 79.5,42.5 Z"/></g>
<g><path style="opacity:1" fill="#9bb33a" d="M 84.5,52.5 C 84.3424,55.9023 84.6758,59.2356 85.5,62.5C 84.8826,62.3893 84.3826,62.056 84,61.5C 83.1955,58.3035 83.3622,55.3035 84.5,52.5 Z"/></g>
<g><path style="opacity:1" fill="#7d9e2f" d="M 74.5,54.5 C 74.3677,57.5701 74.701,60.5701 75.5,63.5C 74.8826,63.3893 74.3826,63.056 74,62.5C 73.1993,59.633 73.3659,56.9664 74.5,54.5 Z"/></g>
<g><path style="opacity:1" fill="#dabf34" d="M 84.5,51.5 C 84.5,51.8333 84.5,52.1667 84.5,52.5C 83.3622,55.3035 83.1955,58.3035 84,61.5C 84.3826,62.056 84.8826,62.3893 85.5,62.5C 86.1667,63.5 86.8333,64.5 87.5,65.5C 83.6042,64.445 81.9376,61.7783 82.5,57.5C 82.5391,55.0478 83.2057,53.0478 84.5,51.5 Z"/></g>
<g><path style="opacity:1" fill="#c3bb38" d="M 101.5,47.5 C 104.776,48.1216 106.109,50.1216 105.5,53.5C 102.833,53.5 100.167,53.5 97.5,53.5C 97.5,55.8333 97.5,58.1667 97.5,60.5C 103.167,60.5 108.833,60.5 114.5,60.5C 114.5,60.8333 114.5,61.1667 114.5,61.5C 108.582,62.621 102.582,62.7876 96.5,62C 95.1816,58.7312 95.1816,55.5645 96.5,52.5C 99.2469,52.8134 101.914,52.48 104.5,51.5C 104.376,50.8933 104.043,50.56 103.5,50.5C 102.833,49.5 102.167,48.5 101.5,47.5 Z"/></g>
<g><path style="opacity:1" fill="#dac038" d="M 76.5,47.5 C 76.2397,54.9475 76.9064,62.2808 78.5,69.5C 78.1667,69.5 77.8333,69.5 77.5,69.5C 76.8333,67.5 76.1667,65.5 75.5,63.5C 74.701,60.5701 74.3677,57.5701 74.5,54.5C 74.7215,51.9327 75.3882,49.5994 76.5,47.5 Z"/></g>
<g><path style="opacity:1" fill="#33a043" d="M 97.5,46.5 C 98.8333,46.8333 100.167,47.1667 101.5,47.5C 102.167,48.5 102.833,49.5 103.5,50.5C 101.167,51.1667 98.8333,51.8333 96.5,52.5C 95.1816,55.5645 95.1816,58.7312 96.5,62C 102.582,62.7876 108.582,62.621 114.5,61.5C 116.5,61.5 117.5,60.5 117.5,58.5C 118.434,57.4324 118.768,56.099 118.5,54.5C 119.29,55.6085 119.79,56.9419 120,58.5C 121.049,59.5171 122.216,59.6838 123.5,59C 121.485,57.4447 121.152,55.6114 122.5,53.5C 126.074,57.2346 128.574,61.5679 130,66.5C 131.011,67.3366 132.178,67.67 133.5,67.5C 133.5,68.5 133.5,69.5 133.5,70.5C 129.901,70.2619 129.567,71.2619 132.5,73.5C 135.623,71.5413 138.29,72.3746 140.5,76C 139.376,76.2492 138.376,76.7492 137.5,77.5C 139.482,79.1166 141.482,79.9499 143.5,80C 142.327,81.8261 142.327,83.6595 143.5,85.5C 142.5,84.8333 141.5,84.1667 140.5,83.5C 140.631,82.7611 140.464,82.0944 140,81.5C 137.713,79.9456 135.546,78.2789 133.5,76.5C 132.71,75.5987 131.71,74.9321 130.5,74.5C 130.027,73.0937 129.027,72.427 127.5,72.5C 126.432,71.5655 125.099,71.2322 123.5,71.5C 123.027,70.0937 122.027,69.427 120.5,69.5C 119.167,69.5 117.833,69.5 116.5,69.5C 107.964,68.7788 99.2969,68.1121 90.5,67.5C 90.0269,66.0937 89.0269,65.427 87.5,65.5C 86.8333,64.5 86.1667,63.5 85.5,62.5C 84.6758,59.2356 84.3424,55.9023 84.5,52.5C 86.4837,51.0172 88.317,49.3505 90,47.5C 92.4339,46.6777 94.9339,46.3444 97.5,46.5 Z"/></g>
<g><path style="opacity:1" fill="#acb43c" d="M 116.5,53.5 C 117.451,54.9187 117.784,56.5853 117.5,58.5C 117.5,60.5 116.5,61.5 114.5,61.5C 114.5,61.1667 114.5,60.8333 114.5,60.5C 115.117,60.3893 115.617,60.056 116,59.5C 116.495,57.5273 116.662,55.5273 116.5,53.5 Z"/></g>
<g><path style="opacity:1" fill="#81a72d" d="M 87.5,65.5 C 89.0269,65.427 90.0269,66.0937 90.5,67.5C 88.9731,67.573 87.9731,66.9063 87.5,65.5 Z"/></g>
<g><path style="opacity:1" fill="#bcc142" d="M 90.5,67.5 C 99.2969,68.1121 107.964,68.7788 116.5,69.5C 108.167,69.5 99.8333,69.5 91.5,69.5C 91.1667,68.8333 90.8333,68.1667 90.5,67.5 Z"/></g>
<g><path style="opacity:1" fill="#eabf2d" d="M 91.5,69.5 C 99.8333,69.5 108.167,69.5 116.5,69.5C 117.833,69.5 119.167,69.5 120.5,69.5C 120.833,70.1667 121.167,70.8333 121.5,71.5C 111.37,70.8802 101.37,70.2136 91.5,69.5 Z"/></g>
<g><path style="opacity:1" fill="#b3be3f" d="M 120.5,69.5 C 122.027,69.427 123.027,70.0937 123.5,71.5C 122.833,71.5 122.167,71.5 121.5,71.5C 121.167,70.8333 120.833,70.1667 120.5,69.5 Z"/></g>
<g><path style="opacity:1" fill="#cfc139" d="M 79.5,70.5 C 82.0892,71.4194 84.0892,73.086 85.5,75.5C 82.9108,74.5806 80.9108,72.914 79.5,70.5 Z"/></g>
<g><path style="opacity:1" fill="#bab93f" d="M 127.5,72.5 C 129.027,72.427 130.027,73.0937 130.5,74.5C 128.973,74.573 127.973,73.9063 127.5,72.5 Z"/></g>
<g><path style="opacity:1" fill="#cfbe35" d="M 85.5,75.5 C 98.2625,75.7685 110.929,76.9352 123.5,79C 124.71,80.0391 125.71,81.2058 126.5,82.5C 125.391,82.4431 124.391,82.1098 123.5,81.5C 123.027,80.0937 122.027,79.427 120.5,79.5C 110.187,78.7955 99.8536,78.2955 89.5,78C 87.9336,77.3918 86.6002,76.5585 85.5,75.5 Z"/></g>
<g><path style="opacity:1" fill="#d8be36" d="M 133.5,76.5 C 135.546,78.2789 137.713,79.9456 140,81.5C 140.464,82.0944 140.631,82.7611 140.5,83.5C 138.784,81.7917 136.784,80.4584 134.5,79.5C 133.873,78.5832 133.539,77.5832 133.5,76.5 Z"/></g>
<g><path style="opacity:1" fill="#92a837" d="M 120.5,79.5 C 122.027,79.427 123.027,80.0937 123.5,81.5C 121.973,81.573 120.973,80.9063 120.5,79.5 Z"/></g>
<g><path style="opacity:1" fill="#aab538" d="M 126.5,82.5 C 129.833,83.8333 132.167,86.1667 133.5,89.5C 130.833,87.5 128.5,85.1667 126.5,82.5 Z"/></g>
<g><path style="opacity:1" fill="#bfbc3d" d="M 140.5,83.5 C 141.5,84.1667 142.5,84.8333 143.5,85.5C 143.5,85.8333 143.5,86.1667 143.5,86.5C 143.5,86.8333 143.5,87.1667 143.5,87.5C 141.738,86.7377 140.738,85.4044 140.5,83.5 Z"/></g>
<g><path style="opacity:1" fill="#90ab2f" d="M 133.5,89.5 C 134.906,89.9731 135.573,90.9731 135.5,92.5C 134.094,92.0269 133.427,91.0269 133.5,89.5 Z"/></g>
<g><path style="opacity:1" fill="#afbb3e" d="M 135.5,92.5 C 136.906,92.9731 137.573,93.9731 137.5,95.5C 137.167,95.5 136.833,95.5 136.5,95.5C 135.89,94.609 135.557,93.609 135.5,92.5 Z"/></g>
<g><path style="opacity:1" fill="#dcbf35" d="M 143.5,87.5 C 145.097,89.8478 146.097,92.5145 146.5,95.5C 144.307,93.4777 143.307,90.8111 143.5,87.5 Z"/></g>
<g><path style="opacity:1" fill="#609d33" d="M 100.5,101.5 C 84.7556,101.183 69.089,101.516 53.5,102.5C 60.9703,101.169 68.8037,100.502 77,100.5C 85.0073,100.5 92.8406,100.834 100.5,101.5 Z"/></g>
<g><path style="opacity:1" fill="#cec238" d="M 100.5,101.5 C 100.5,102.833 100.5,104.167 100.5,105.5C 100.167,105.5 99.8333,105.5 99.5,105.5C 99.5,104.5 99.5,103.5 99.5,102.5C 85.5,102.5 71.5,102.5 57.5,102.5C 55.9826,102.511 54.8159,103.177 54,104.5C 53.502,107.482 53.3354,110.482 53.5,113.5C 52.2134,109.935 52.2134,106.268 53.5,102.5C 69.089,101.516 84.7556,101.183 100.5,101.5 Z"/></g>
<g><path style="opacity:1" fill="#d9c038" d="M 146.5,95.5 C 147.935,98.5499 148.602,101.883 148.5,105.5C 148.164,110.184 147.664,114.851 147,119.5C 146.617,120.056 146.117,120.389 145.5,120.5C 146.44,112.221 146.773,103.888 146.5,95.5 Z"/></g>
<g><path style="opacity:1" fill="#4e9b37" d="M 143.5,87.5 C 143.5,87.1667 143.5,86.8333 143.5,86.5C 144.496,86.4142 145.329,86.7476 146,87.5C 151.403,99.2898 151.903,111.29 147.5,123.5C 146.165,125.201 144.832,126.868 143.5,128.5C 144.371,125.888 145.037,123.221 145.5,120.5C 146.117,120.389 146.617,120.056 147,119.5C 147.664,114.851 148.164,110.184 148.5,105.5C 148.602,101.883 147.935,98.5499 146.5,95.5C 146.097,92.5145 145.097,89.8478 143.5,87.5 Z"/></g>
<g><path style="opacity:1" fill="#e2c032" d="M 137.5,95.5 C 138.79,96.0577 139.623,97.0577 140,98.5C 140.667,103.5 140.667,108.5 140,113.5C 139.617,114.056 139.117,114.389 138.5,114.5C 140.085,108.032 139.752,101.699 137.5,95.5 Z"/></g>
<g><path style="opacity:1" fill="#a2af31" d="M 100.5,101.5 C 101.479,104.625 101.813,107.958 101.5,111.5C 88.8333,111.5 76.1667,111.5 63.5,111.5C 63.5,113.167 63.5,114.833 63.5,116.5C 63.1667,116.5 62.8333,116.5 62.5,116.5C 62.5,114.5 62.5,112.5 62.5,110.5C 75.1667,110.5 87.8333,110.5 100.5,110.5C 100.5,108.833 100.5,107.167 100.5,105.5C 100.5,104.167 100.5,102.833 100.5,101.5 Z"/></g>
<g><path style="opacity:1" fill="#5ea136" d="M 136.5,95.5 C 136.833,95.5 137.167,95.5 137.5,95.5C 139.752,101.699 140.085,108.032 138.5,114.5C 138.5,114.833 138.5,115.167 138.5,115.5C 137.433,117.964 136.1,120.297 134.5,122.5C 136.932,113.617 137.599,104.617 136.5,95.5 Z"/></g>
<g><path style="opacity:1" fill="#f2bb25" d="M 57.5,102.5 C 54.0021,105.642 53.5021,109.308 56,113.5C 57.0113,114.337 58.1779,114.67 59.5,114.5C 59.7059,118.898 59.3726,123.232 58.5,127.5C 57.8333,126.833 57.1667,126.167 56.5,125.5C 56.4725,122.084 55.4725,119.084 53.5,116.5C 53.5,115.5 53.5,114.5 53.5,113.5C 53.3354,110.482 53.502,107.482 54,104.5C 54.8159,103.177 55.9826,102.511 57.5,102.5 Z"/></g>
<g><path style="opacity:1" fill="#b6b83b" d="M 53.5,116.5 C 55.4725,119.084 56.4725,122.084 56.5,125.5C 54.9281,122.785 53.9281,119.785 53.5,116.5 Z"/></g>
<g><path style="opacity:1" fill="#96ad37" d="M 59.5,131.5 C 60.8333,132.167 61.8333,133.167 62.5,134.5C 62.5,134.833 62.5,135.167 62.5,135.5C 60.7376,134.738 59.7376,133.404 59.5,131.5 Z"/></g>
<g><path style="opacity:1" fill="#f9b820" d="M 100.5,37.5 C 102.685,37.7036 104.685,38.3702 106.5,39.5C 107.5,40.1667 108.5,40.8333 109.5,41.5C 110.167,42.5 110.833,43.5 111.5,44.5C 111.427,46.0269 112.094,47.0269 113.5,47.5C 113.427,49.0269 114.094,50.0269 115.5,50.5C 116.11,51.391 116.443,52.391 116.5,53.5C 116.662,55.5273 116.495,57.5273 116,59.5C 115.617,60.056 115.117,60.3893 114.5,60.5C 108.833,60.5 103.167,60.5 97.5,60.5C 97.5,58.1667 97.5,55.8333 97.5,53.5C 100.167,53.5 102.833,53.5 105.5,53.5C 106.109,50.1216 104.776,48.1216 101.5,47.5C 101.423,46.2502 100.756,45.4169 99.5,45C 97.8333,44.8333 96.1667,44.6667 94.5,44.5C 92.3603,44.5561 90.6936,45.2227 89.5,46.5C 87.5484,47.7847 85.8818,49.4514 84.5,51.5C 83.2057,53.0478 82.5391,55.0478 82.5,57.5C 81.9376,61.7783 83.6042,64.445 87.5,65.5C 87.9731,66.9063 88.9731,67.573 90.5,67.5C 90.8333,68.1667 91.1667,68.8333 91.5,69.5C 101.37,70.2136 111.37,70.8802 121.5,71.5C 122.167,71.5 122.833,71.5 123.5,71.5C 125.099,71.2322 126.432,71.5655 127.5,72.5C 127.973,73.9063 128.973,74.573 130.5,74.5C 131.71,74.9321 132.71,75.5987 133.5,76.5C 133.539,77.5832 133.873,78.5832 134.5,79.5C 136.784,80.4584 138.784,81.7917 140.5,83.5C 140.738,85.4044 141.738,86.7377 143.5,87.5C 143.307,90.8111 144.307,93.4777 146.5,95.5C 146.773,103.888 146.44,112.221 145.5,120.5C 145.037,123.221 144.371,125.888 143.5,128.5C 141.738,129.262 140.738,130.596 140.5,132.5C 138.952,132.821 138.285,133.821 138.5,135.5C 135.757,137.239 133.757,139.573 132.5,142.5C 131.833,142.5 131.5,142.833 131.5,143.5C 129.847,143.66 128.514,144.326 127.5,145.5C 126.329,146.345 124.995,147.011 123.5,147.5C 120.669,148.079 118.336,149.412 116.5,151.5C 114.451,151.706 114.117,152.539 115.5,154C 125.828,154.5 136.161,154.666 146.5,154.5C 146.5,156.5 146.5,158.5 146.5,160.5C 115.833,160.5 85.1667,160.5 54.5,160.5C 54.5,158.5 54.5,156.5 54.5,154.5C 64.3478,154.827 74.0144,154.494 83.5,153.5C 86.0983,152.472 86.0983,151.472 83.5,150.5C 81.4919,148.636 79.1585,146.97 76.5,145.5C 76.8333,144.833 77.1667,144.167 77.5,143.5C 75.604,142.534 73.604,142.201 71.5,142.5C 71.762,141.022 71.4287,139.689 70.5,138.5C 69.2261,140.85 67.8927,140.683 66.5,138C 66.9574,137.586 67.2907,137.086 67.5,136.5C 65.9783,135.438 64.3117,134.771 62.5,134.5C 61.8333,133.167 60.8333,132.167 59.5,131.5C 59.1667,130.167 58.8333,128.833 58.5,127.5C 59.3726,123.232 59.7059,118.898 59.5,114.5C 58.1779,114.67 57.0113,114.337 56,113.5C 53.5021,109.308 54.0021,105.642 57.5,102.5C 71.5,102.5 85.5,102.5 99.5,102.5C 99.5,103.5 99.5,104.5 99.5,105.5C 99.67,106.822 99.3366,107.989 98.5,109C 86.1667,109.333 73.8333,109.667 61.5,110C 60.1578,112.456 60.4911,114.622 62.5,116.5C 63.4134,120.234 64.7467,123.9 66.5,127.5C 67.3569,128.425 68.3569,129.092 69.5,129.5C 70.5,132.5 72.5,134.5 75.5,135.5C 75.5,137.5 76.5,138.5 78.5,138.5C 82.8976,141.079 87.5643,143.079 92.5,144.5C 97.9846,145.652 103.651,145.818 109.5,145C 110.416,144.722 111.082,144.222 111.5,143.5C 112.167,143.5 112.833,143.5 113.5,143.5C 116.406,142.892 118.74,141.559 120.5,139.5C 123.198,139.155 125.198,137.822 126.5,135.5C 126.5,134.833 126.833,134.5 127.5,134.5C 129.167,133.5 130.5,132.167 131.5,130.5C 135.691,126.448 138.024,121.448 138.5,115.5C 138.5,115.167 138.5,114.833 138.5,114.5C 139.117,114.389 139.617,114.056 140,113.5C 140.667,108.5 140.667,103.5 140,98.5C 139.623,97.0577 138.79,96.0577 137.5,95.5C 137.573,93.9731 136.906,92.9731 135.5,92.5C 135.573,90.9731 134.906,89.9731 133.5,89.5C 132.167,86.1667 129.833,83.8333 126.5,82.5C 125.71,81.2058 124.71,80.0391 123.5,79C 110.929,76.9352 98.2625,75.7685 85.5,75.5C 84.0892,73.086 82.0892,71.4194 79.5,70.5C 79.5,69.8333 79.1667,69.5 78.5,69.5C 76.9064,62.2808 76.2397,54.9475 76.5,47.5C 78.2624,46.7377 79.2624,45.4044 79.5,43.5C 85.6537,38.8752 92.6537,36.8752 100.5,37.5 Z"/></g>
<g><path style="opacity:1" fill="#b4bb3e" d="M 131.5,129.5 C 131.5,129.833 131.5,130.167 131.5,130.5C 130.5,132.167 129.167,133.5 127.5,134.5C 128.08,132.251 129.413,130.585 131.5,129.5 Z"/></g>
<g><path style="opacity:1" fill="#b2b934" d="M 69.5,129.5 C 71.1667,130.833 72.8333,132.167 74.5,133.5C 74.8333,134.167 75.1667,134.833 75.5,135.5C 72.5,134.5 70.5,132.5 69.5,129.5 Z"/></g>
<g><path style="opacity:1" fill="#d5be33" d="M 138.5,115.5 C 138.024,121.448 135.691,126.448 131.5,130.5C 131.5,130.167 131.5,129.833 131.5,129.5C 133.075,127.453 134.075,125.119 134.5,122.5C 136.1,120.297 137.433,117.964 138.5,115.5 Z"/></g>
<g><path style="opacity:1" fill="#cfbf30" d="M 62.5,116.5 C 62.8333,116.5 63.1667,116.5 63.5,116.5C 64.6378,120.109 66.3044,123.442 68.5,126.5C 69.1098,127.391 69.4431,128.391 69.5,129.5C 68.3569,129.092 67.3569,128.425 66.5,127.5C 64.7467,123.9 63.4134,120.234 62.5,116.5 Z"/></g>
<g><path style="opacity:1" fill="#499a34" d="M 101.5,111.5 C 89.3446,112.495 77.0113,112.829 64.5,112.5C 65.9584,117.122 67.2917,121.788 68.5,126.5C 66.3044,123.442 64.6378,120.109 63.5,116.5C 63.5,114.833 63.5,113.167 63.5,111.5C 76.1667,111.5 88.8333,111.5 101.5,111.5 Z"/></g>
<g><path style="opacity:1" fill="#e3c132" d="M 99.5,105.5 C 99.8333,105.5 100.167,105.5 100.5,105.5C 100.5,107.167 100.5,108.833 100.5,110.5C 87.8333,110.5 75.1667,110.5 62.5,110.5C 62.5,112.5 62.5,114.5 62.5,116.5C 60.4911,114.622 60.1578,112.456 61.5,110C 73.8333,109.667 86.1667,109.333 98.5,109C 99.3366,107.989 99.67,106.822 99.5,105.5 Z"/></g>
<g><path style="opacity:1" fill="#789725" d="M 103.5,50.5 C 104.043,50.56 104.376,50.8933 104.5,51.5C 101.914,52.48 99.2469,52.8134 96.5,52.5C 98.8333,51.8333 101.167,51.1667 103.5,50.5 Z"/></g>
<g><path style="opacity:1" fill="#9cb133" d="M 97.5,46.5 C 94.9339,46.3444 92.4339,46.6777 90,47.5C 88.317,49.3505 86.4837,51.0172 84.5,52.5C 84.5,52.1667 84.5,51.8333 84.5,51.5C 85.8818,49.4514 87.5484,47.7847 89.5,46.5C 92.272,45.2329 94.9387,45.2329 97.5,46.5 Z"/></g>
<g><path style="opacity:1" fill="#dcbe35" d="M 101.5,47.5 C 100.167,47.1667 98.8333,46.8333 97.5,46.5C 94.9387,45.2329 92.272,45.2329 89.5,46.5C 90.6936,45.2227 92.3603,44.5561 94.5,44.5C 96.1667,44.6667 97.8333,44.8333 99.5,45C 100.756,45.4169 101.423,46.2502 101.5,47.5 Z"/></g>
<g><path style="opacity:1" fill="#cbbb3e" d="M 140.5,132.5 C 139.89,133.391 139.557,134.391 139.5,135.5C 139.167,135.5 138.833,135.5 138.5,135.5C 138.285,133.821 138.952,132.821 140.5,132.5 Z"/></g>
<g><path style="opacity:1" fill="#70a338" d="M 143.5,128.5 C 142.532,131.1 141.199,133.434 139.5,135.5C 139.557,134.391 139.89,133.391 140.5,132.5C 140.738,130.596 141.738,129.262 143.5,128.5 Z"/></g>
<g><path style="opacity:1" fill="#c4bc37" d="M 75.5,135.5 C 76.8333,136.167 77.8333,137.167 78.5,138.5C 76.5,138.5 75.5,137.5 75.5,135.5 Z"/></g>
<g><path style="opacity:1" fill="#bcbb3b" d="M 126.5,135.5 C 125.198,137.822 123.198,139.155 120.5,139.5C 122.147,137.674 124.147,136.34 126.5,135.5 Z"/></g>
<g><path style="opacity:1" fill="#9eb13a" d="M 138.5,135.5 C 138.267,137.062 137.6,138.395 136.5,139.5C 135.167,140.5 133.833,141.5 132.5,142.5C 133.757,139.573 135.757,137.239 138.5,135.5 Z"/></g>
<g><path style="opacity:1" fill="#ccba35" d="M 120.5,139.5 C 118.74,141.559 116.406,142.892 113.5,143.5C 113.5,143.167 113.5,142.833 113.5,142.5C 115.649,141.264 117.982,140.264 120.5,139.5 Z"/></g>
<g><path style="opacity:1" fill="#4f9c34" d="M 74.5,133.5 C 78.9503,137.164 83.9503,139.997 89.5,142C 97.4931,142.5 105.493,142.666 113.5,142.5C 113.5,142.833 113.5,143.167 113.5,143.5C 112.833,143.5 112.167,143.5 111.5,143.5C 105.203,144.32 98.8692,144.653 92.5,144.5C 87.5643,143.079 82.8976,141.079 78.5,138.5C 77.8333,137.167 76.8333,136.167 75.5,135.5C 75.1667,134.833 74.8333,134.167 74.5,133.5 Z"/></g>
<g><path style="opacity:1" fill="#ecbd27" d="M 62.5,135.5 C 62.5,135.167 62.5,134.833 62.5,134.5C 64.3117,134.771 65.9783,135.438 67.5,136.5C 67.2907,137.086 66.9574,137.586 66.5,138C 67.8927,140.683 69.2261,140.85 70.5,138.5C 71.4287,139.689 71.762,141.022 71.5,142.5C 73.604,142.201 75.604,142.534 77.5,143.5C 77.1667,144.167 76.8333,144.833 76.5,145.5C 79.1585,146.97 81.4919,148.636 83.5,150.5C 82.1667,150.167 80.8333,149.833 79.5,149.5C 79.1667,149.5 78.8333,149.5 78.5,149.5C 76.6115,148.396 74.9448,147.063 73.5,145.5C 73.0269,144.094 72.0269,143.427 70.5,143.5C 67.4728,141.14 64.8062,138.473 62.5,135.5 Z"/></g>
<g><path style="opacity:1" fill="#c1be39" d="M 70.5,143.5 C 72.0269,143.427 73.0269,144.094 73.5,145.5C 71.9731,145.573 70.9731,144.906 70.5,143.5 Z"/></g>
<g><path style="opacity:1" fill="#c9c03a" d="M 111.5,143.5 C 111.082,144.222 110.416,144.722 109.5,145C 103.651,145.818 97.9846,145.652 92.5,144.5C 98.8692,144.653 105.203,144.32 111.5,143.5 Z"/></g>
<g><path style="opacity:1" fill="#a4ad33" d="M 131.5,143.5 C 130.713,145.104 129.38,145.771 127.5,145.5C 128.514,144.326 129.847,143.66 131.5,143.5 Z"/></g>
<g><path style="opacity:1" fill="#cfbc32" d="M 123.5,147.5 C 123.167,148.167 122.833,148.833 122.5,149.5C 120.5,150.167 118.5,150.833 116.5,151.5C 118.336,149.412 120.669,148.079 123.5,147.5 Z"/></g>
<g><path style="opacity:1" fill="#489d38" d="M 136.5,139.5 C 134.322,143.843 130.989,147.01 126.5,149C 133.666,150.298 141,150.965 148.5,151C 149.456,154.394 149.789,157.894 149.5,161.5C 149.167,161.5 148.833,161.5 148.5,161.5C 148.81,158.287 148.477,155.287 147.5,152.5C 139.01,151.67 130.343,151.17 121.5,151C 122.056,150.617 122.389,150.117 122.5,149.5C 122.833,148.833 123.167,148.167 123.5,147.5C 124.995,147.011 126.329,146.345 127.5,145.5C 129.38,145.771 130.713,145.104 131.5,143.5C 131.5,142.833 131.833,142.5 132.5,142.5C 133.833,141.5 135.167,140.5 136.5,139.5 Z"/></g>
<g><path style="opacity:1" fill="#529327" d="M 78.5,149.5 C 78.8333,149.5 79.1667,149.5 79.5,149.5C 80.5981,150.397 80.5981,151.23 79.5,152C 70.8397,152.5 62.1731,152.666 53.5,152.5C 62.0499,152.155 70.3832,151.155 78.5,149.5 Z"/></g>
<g><path style="opacity:1" fill="#589325" d="M 122.5,149.5 C 122.389,150.117 122.056,150.617 121.5,151C 130.343,151.17 139.01,151.67 147.5,152.5C 137.167,152.5 126.833,152.5 116.5,152.5C 116.5,152.167 116.5,151.833 116.5,151.5C 118.5,150.833 120.5,150.167 122.5,149.5 Z"/></g>
<g><path style="opacity:1" fill="#e8be2e" d="M 116.5,151.5 C 116.5,151.833 116.5,152.167 116.5,152.5C 126.653,153.494 136.986,153.828 147.5,153.5C 147.5,156.167 147.5,158.833 147.5,161.5C 116.167,161.5 84.8333,161.5 53.5,161.5C 53.5,158.833 53.5,156.167 53.5,153.5C 63.5,153.5 73.5,153.5 83.5,153.5C 74.0144,154.494 64.3478,154.827 54.5,154.5C 54.5,156.5 54.5,158.5 54.5,160.5C 85.1667,160.5 115.833,160.5 146.5,160.5C 146.5,158.5 146.5,156.5 146.5,154.5C 136.161,154.666 125.828,154.5 115.5,154C 114.117,152.539 114.451,151.706 116.5,151.5 Z"/></g>
<g><path style="opacity:1" fill="#b7c244" d="M 79.5,149.5 C 80.8333,149.833 82.1667,150.167 83.5,150.5C 86.0983,151.472 86.0983,152.472 83.5,153.5C 73.5,153.5 63.5,153.5 53.5,153.5C 53.5,156.167 53.5,158.833 53.5,161.5C 84.8333,161.5 116.167,161.5 147.5,161.5C 147.5,158.833 147.5,156.167 147.5,153.5C 136.986,153.828 126.653,153.494 116.5,152.5C 126.833,152.5 137.167,152.5 147.5,152.5C 148.477,155.287 148.81,158.287 148.5,161.5C 117.004,162.498 85.3377,162.832 53.5,162.5C 52.1667,159.167 52.1667,155.833 53.5,152.5C 62.1731,152.666 70.8397,152.5 79.5,152C 80.5981,151.23 80.5981,150.397 79.5,149.5 Z"/></g>
<g><path style="opacity:1" fill="#479a34" d="M 148.5,161.5 C 148.833,161.5 149.167,161.5 149.5,161.5C 149.5,162.5 149.5,163.5 149.5,164.5C 117.149,165.159 85.1492,164.493 53.5,162.5C 85.3377,162.832 117.004,162.498 148.5,161.5 Z"/></g>
</svg>
